<?xml version="1.0" encoding="UTF-8"?>
<svg id="Capa_2" data-name="Capa 2" xmlns="http://www.w3.org/2000/svg" viewBox="0 0 1104.36 349.46">
  <defs>
    <style>
      .cls-1 {
        fill: #063;
      }

      .cls-1, .cls-2, .cls-3 {
        stroke-width: 0px;
      }

      .cls-2 {
        fill: #00c261;
      }

      .cls-3 {
        fill: #fff;
      }
    </style>
  </defs>
  <g id="Capa_1-2" data-name="Capa 1">
    <g>
      <path class="cls-2" d="M341.34,219.27v.94h-41.95l-45.72-45.72,46.19-46.19h41.47c10.84,29.22,10.84,61.74,0,90.96h0Z"/>
      <path class="cls-3" d="M295.15,117.94h-65.51V53.37l29.69-29.69h0c28.28,13.2,51.37,35.82,64.57,64.1v.94l-29.22,29.69.47-.47Z"/>
      <path class="cls-2" d="M324.37,87.78v.94l-29.22,29.69h-65.51V53.85l29.69-29.69h0c28.28,13.2,51.37,35.82,64.57,64.1l.47-.47Z"/>
      <path class="cls-2" d="M324.37,259.8h0c-13.2,28.28-35.82,51.37-64.1,64.57h-.94l-29.69-29.22v-65.04h65.04l29.22,29.22.47.47Z"/>
      <polygon class="cls-2" points="284.78 128.31 246.13 167.43 229.64 150.93 229.64 128.31 284.78 128.31"/>
      <polygon class="cls-2" points="284.78 220.21 229.64 220.21 229.64 198.06 246.13 181.57 284.78 220.21"/>
      <polygon class="cls-1" points="239.06 174.5 219.74 193.82 219.74 220.21 192.88 220.21 174.03 239.54 154.7 220.21 127.84 220.21 127.84 193.35 108.99 174.5 127.84 155.65 127.84 128.31 154.7 128.31 174.03 109.46 192.88 128.31 219.74 128.31 219.74 155.17 239.06 174.5"/>
      <path class="cls-2" d="M219.74,299.86v41.47h0c-29.22,10.84-61.74,10.84-90.96,0h-.94v-41.47l46.19-46.19,45.72,45.72v.47Z"/>
      <polygon class="cls-2" points="219.74 230.58 219.74 285.25 181.1 246.6 197.12 230.58 219.74 230.58"/>
      <polygon class="cls-2" points="219.74 63.74 219.74 117.94 197.12 117.94 181.1 102.39 219.74 63.74"/>
      <path class="cls-2" d="M219.74,8.13v41l-45.72,45.72-46.19-46.19V8.13h.94c29.22-10.84,61.74-10.84,90.96,0h0Z"/>
      <polygon class="cls-2" points="166.49 102.39 150.46 117.94 127.84 117.94 127.84 63.27 166.49 102.39"/>
      <polygon class="cls-2" points="166.49 246.6 127.84 285.72 127.84 230.58 150.46 230.58 166.49 246.6"/>
      <path class="cls-2" d="M117.47,230.58v65.51l-28.28,28.28h-.94c-28.28-13.67-50.9-36.76-64.1-65.04h0l28.75-28.75h64.57Z"/>
      <polygon class="cls-2" points="117.47 197.59 117.47 220.21 62.8 220.21 101.45 181.57 117.47 197.59"/>
      <polygon class="cls-2" points="117.47 128.31 117.47 151.4 101.45 167.43 62.8 128.31 117.47 128.31"/>
      <path class="cls-2" d="M117.47,52.9v65.04H52.43l-28.75-28.75v-.94c13.67-28.28,36.76-50.9,65.04-64.1h0l28.75,28.75Z"/>
      <path class="cls-2" d="M94.38,174.5l-45.72,45.72H8.13v-.94c-10.84-29.22-10.84-61.74,0-90.96h40.53l46.19,46.19h-.47Z"/>
    </g>
    <g>
      <path class="cls-1" d="M439.84,26.98h14.14v55.61c0,2.83.94,5.18,2.36,7.54s3.3,4.24,5.66,5.66,6.13,2.36,10.84,2.36,8.01-.94,10.84-2.36c2.36-1.41,4.24-3.3,5.66-5.66s1.89-4.71,2.36-7.54V26.98h14.14v51.84c0,5.18-.94,9.9-2.36,13.67-1.41,3.77-3.77,7.07-6.6,9.9-2.83,2.83-6.6,4.71-10.37,5.66s-8.48,1.89-13.67,1.89-9.43-.47-13.67-1.89-7.54-3.3-10.37-5.66c-2.83-2.83-5.18-5.66-6.6-9.9-1.41-3.77-2.36-8.48-2.36-13.67V26.98h0Z"/>
      <path class="cls-1" d="M519.96,49.6h12.25v8.48h0c1.89-2.83,4.71-5.66,7.54-7.54,3.3-1.89,6.6-2.83,10.37-2.83,6.6,0,11.31,1.89,15.08,5.18s5.66,8.48,5.66,15.08v40.06h-12.73v-36.76c0-4.71-.94-8.01-2.83-9.9-1.89-1.89-4.71-3.3-8.48-3.3s-4.24,0-5.66,1.41c-1.89.94-3.3,1.89-4.24,3.3-1.41,1.41-2.36,2.83-2.83,4.71s-.94,3.77-.94,6.13v34.4h-12.73v-58.44h-.47Z"/>
      <path class="cls-1" d="M584.05,26.98h12.73v12.25h-12.73v-12.25ZM584.05,49.6h12.73v58.44h-12.73v-58.44Z"/>
      <path class="cls-1" d="M604.32,49.6h14.14l14.61,44.77h0l14.14-44.77h13.2l-20.74,58.44h-14.61l-21.21-58.44h.47Z"/>
      <path class="cls-1" d="M677.84,82.12c0,2.36,0,4.24.94,6.6.47,1.89,1.41,3.77,2.83,5.66,1.41,1.41,2.83,2.83,4.71,3.77s4.24,1.41,7.07,1.41,6.6-.94,8.95-2.36,4.24-4.24,5.18-7.54h12.25c-.47,3.3-1.89,6.13-3.3,8.48s-3.77,4.71-6.13,6.13c-2.36,1.89-5.18,2.83-8.01,3.77-2.83.94-6.13,1.41-8.95,1.41-4.71,0-8.48-.94-12.25-2.36s-6.6-3.77-8.95-6.13c-2.36-2.83-4.24-6.13-5.66-9.9s-1.89-8.01-1.89-12.25.47-8.01,1.89-11.78,3.3-7.07,5.66-9.9,5.18-5.18,8.95-6.6,7.54-2.36,11.78-2.36,8.95.94,12.25,2.83c3.77,1.89,6.6,4.24,8.95,7.54,2.36,3.3,4.24,6.6,5.18,10.84s1.41,8.48.94,12.72h-42.89.47ZM708,73.64c0-1.89-.47-3.77-1.41-5.66s-1.89-3.3-2.83-4.71c-1.41-1.41-2.83-2.36-4.71-3.3s-3.77-1.41-6.13-1.41-4.24,0-6.13,1.41c-1.89.94-3.3,1.89-4.71,3.3s-2.36,2.83-3.3,4.71-1.41,3.77-1.41,6.13h30.16l.47-.47Z"/>
      <path class="cls-1" d="M729.68,49.6h12.25v11.31h0c0-1.41.94-3.3,2.36-4.71.94-1.41,2.36-2.83,3.77-4.24,1.41-1.41,3.3-2.36,5.18-2.83s3.77-.94,5.66-.94h5.18v12.25h-5.66c-2.36,0-4.24,0-6.13,1.41-1.89.94-3.77,2.36-5.18,3.77-1.41,1.89-2.36,3.77-3.3,6.13s-1.41,5.18-1.41,8.48v27.81h-12.73v-58.44h0Z"/>
      <path class="cls-1" d="M778.23,89.19c0,3.77,1.89,6.6,4.24,8.01s5.66,2.36,8.95,2.36h4.24c1.41,0,2.83-.47,4.24-.94s2.36-1.41,3.3-2.36,1.41-2.36,1.41-4.24-.47-2.83-1.89-4.24-2.36-1.89-4.24-2.36-3.77-1.41-6.13-1.41-4.71-.94-7.07-1.41-4.71-.94-7.07-1.89-4.24-1.89-6.13-2.83-3.3-2.83-4.24-4.71-1.41-4.24-1.41-7.54.94-5.66,2.36-8.01,3.3-3.77,5.66-5.18,5.18-2.36,8.01-2.83c2.83-.47,5.66-.94,8.48-.94s6.13,0,8.48.94c2.83.47,5.18,1.89,7.54,3.3s4.24,3.3,5.66,5.66,2.36,5.18,2.83,8.48h-13.67c-.47-3.3-1.89-5.18-4.24-6.13s-4.71-1.41-7.54-1.41h-3.3c-1.41,0-2.36,0-3.3.94-.94,0-1.89.94-2.83,1.89-.94.94-.94,1.89-.94,3.3s.47,2.83,1.41,3.77,2.36,1.89,4.24,2.36,3.77,1.41,6.13,1.41,4.71.94,7.07,1.41,4.71.94,7.07,1.89,4.24,1.89,6.13,2.83c1.89,1.41,3.3,2.83,4.24,4.71s1.41,4.24,1.41,7.07-.94,6.6-2.36,8.95-3.77,4.24-6.13,5.66-5.18,2.83-8.48,3.3c-3.3.47-6.13.94-8.95.94s-7.07,0-10.37-1.41c-3.3-.94-5.66-1.89-8.01-3.77-2.36-1.89-4.24-3.77-5.66-6.13s-1.89-5.66-1.89-8.95h12.73v-.47Z"/>
      <path class="cls-1" d="M826.77,26.98h12.73v12.25h-12.73v-12.25ZM826.77,49.6h12.73v58.44h-12.73v-58.44Z"/>
      <path class="cls-1" d="M907.83,108.04h-12.25v-8.01h0c-1.89,3.3-4.24,5.66-7.54,7.54-3.3,1.41-7.07,2.36-10.37,2.36s-8.48-.94-12.25-2.36c-3.3-1.41-6.13-3.77-8.48-6.6-2.36-2.83-3.77-6.13-5.18-9.9-.94-3.77-1.89-8.01-1.89-12.25s.94-9.9,2.36-13.67c1.41-3.77,3.3-7.07,5.66-9.43s5.18-4.24,8.01-5.66c2.83-.94,6.13-1.89,9.43-1.89s3.77,0,5.66.47c1.89,0,3.77.94,5.66,1.41,1.89.94,3.3,1.89,4.71,2.83,1.41.94,2.83,2.36,3.77,4.24h0v-29.69h12.73v81.06-.47ZM863.06,79.3c0,2.36,0,4.71.94,7.54.47,2.36,1.41,4.71,2.83,6.6s2.83,3.3,5.18,4.71,4.24,1.89,7.07,1.89,5.18-.47,7.54-1.89c1.89-1.41,3.77-2.83,5.18-4.71s2.36-4.24,2.83-6.6.94-5.18.94-7.54c0-6.6-1.41-11.78-4.24-15.08-2.83-3.77-7.07-5.66-11.78-5.66s-5.66.47-7.54,1.89c-1.89,1.41-3.77,2.83-5.18,4.71s-2.36,4.24-2.83,6.6-.94,5.18-.94,7.54h0Z"/>
      <path class="cls-1" d="M970.04,94.85c0,1.41,0,2.83.47,3.3,0,.47,1.41.94,2.36.94h3.3v8.95s-.94,0-1.89.47c-.94,0-1.41,0-2.36.47h-4.24c-2.83,0-4.71-.47-6.6-1.41s-2.83-2.83-3.3-5.66c-2.36,2.36-5.66,4.24-9.43,5.66-3.77.94-7.54,1.89-10.84,1.89s-5.18,0-7.54-.94-4.71-1.89-6.6-3.3-3.3-3.3-4.24-5.18c-.94-2.36-1.41-4.71-1.41-7.54s.47-6.6,1.89-8.95c1.41-2.36,2.83-4.24,5.18-5.18,2.36-1.41,4.71-2.36,7.07-2.83,2.83-.47,5.18-.94,8.01-1.41,2.36,0,4.71-.94,6.6-.94s3.77-.47,5.66-.94c1.41,0,2.83-.94,3.77-1.89s1.41-2.36,1.41-4.24,0-2.83-1.41-4.24c-.94-.94-1.89-1.89-2.83-2.36-.94-.47-2.36-.94-3.77-.94h-4.24c-3.77,0-6.6.94-8.95,2.36s-3.77,3.77-3.77,7.07h-12.73c0-3.77.94-7.07,2.83-9.43,1.41-2.36,3.77-4.71,6.13-6.13s5.18-2.36,8.48-3.3,6.13-.94,9.43-.94,5.66,0,8.48.94,5.18,1.41,7.54,2.83,4.24,3.3,5.18,5.18c1.41,2.36,1.89,4.71,1.89,8.01v30.16l.47-.47ZM957.32,78.82c-1.89,1.41-4.24,1.89-7.07,2.36-2.83,0-5.66.47-8.48,1.41-1.41,0-2.83.47-3.77.94-1.41,0-2.36.94-3.3,1.89s-1.89,1.89-2.36,2.83c-.47.94-.94,2.36-.94,4.24s0,2.83,1.41,3.77c.94.94,1.89,1.89,2.83,2.36.94.47,2.36.94,3.77,1.41h3.77c.94,0,2.83,0,4.71-.47,1.89,0,3.3-.94,4.71-1.89s2.83-1.89,3.77-3.3,1.41-3.3,1.41-5.18v-9.43l-.47-.94Z"/>
      <path class="cls-1" d="M1037.91,108.04h-12.25v-8.01h0c-1.89,3.3-4.24,5.66-7.54,7.54-3.3,1.41-7.07,2.36-10.37,2.36s-8.48-.94-12.25-2.36c-3.3-1.41-6.13-3.77-8.48-6.6-2.36-2.83-3.77-6.13-5.18-9.9-.94-3.77-1.89-8.01-1.89-12.25s.94-9.9,2.36-13.67,3.3-7.07,5.66-9.43c2.36-2.36,5.18-4.24,8.01-5.66,2.83-.94,6.13-1.89,9.43-1.89s3.77,0,5.66.47c1.89,0,3.77.94,5.66,1.41,1.89.94,3.3,1.89,4.71,2.83,1.41.94,2.83,2.36,3.77,4.24h0v-29.69h12.73v81.06-.47ZM993.14,79.3c0,2.36,0,4.71.94,7.54.47,2.36,1.41,4.71,2.83,6.6s2.83,3.3,5.18,4.71,4.24,1.89,7.07,1.89,5.18-.47,7.54-1.89c1.89-1.41,3.77-2.83,5.18-4.71s2.36-4.24,2.83-6.6.94-5.18.94-7.54c0-6.6-1.41-11.78-4.24-15.08-2.83-3.77-7.07-5.66-11.78-5.66s-5.66.47-7.54,1.89c-1.89,1.41-3.77,2.83-5.18,4.71s-2.36,4.24-2.83,6.6-.94,5.18-.94,7.54h0Z"/>
      <path class="cls-1" d="M440.78,131.61h14.14v81.06h-14.14v-81.06Z"/>
      <path class="cls-1" d="M469.53,153.76h12.25v8.48h0c1.89-2.83,4.71-5.66,7.54-7.54,3.3-1.89,6.6-2.83,10.37-2.83,6.6,0,11.31,1.89,15.08,5.18s5.66,8.48,5.66,15.08v40.06h-12.73v-36.76c0-4.71-.94-8.01-2.83-9.9-1.89-1.89-4.71-3.3-8.48-3.3s-4.24,0-5.66,1.41c-1.89.94-3.3,1.89-4.24,3.3-1.41,1.41-2.36,2.83-2.83,4.71s-.94,3.77-.94,6.13v34.4h-12.73v-58.44h-.47Z"/>
      <path class="cls-1" d="M527.5,153.76h9.9v-17.44h12.73v17.44h11.78v9.43h-11.78v34.4c0,.94,0,1.89.94,2.36,0,.47.94,1.41,1.89,1.41s1.89.47,3.3.47h5.66v9.9h-8.48c-3.3,0-6.13,0-8.01-.94-1.89-.47-3.77-1.41-4.71-2.83s-1.89-2.83-2.36-4.71c0-1.89-.47-4.24-.94-6.6v-34.4h-9.9v-9.43.94Z"/>
      <path class="cls-1" d="M580.28,186.28c0,2.36,0,4.24.94,6.6.47,1.89,1.41,3.77,2.83,5.66,1.41,1.41,2.83,2.83,4.71,3.77s4.24,1.41,7.07,1.41,6.6-.94,8.95-2.36,4.24-4.24,5.18-7.54h12.25c-.47,3.3-1.89,6.13-3.3,8.48s-3.77,4.71-6.13,6.13c-2.36,1.89-5.18,2.83-8.01,3.77-2.83.94-6.13,1.41-8.95,1.41-4.71,0-8.48-.94-12.25-2.36s-6.6-3.77-8.95-6.13c-2.36-2.83-4.24-6.13-5.66-9.9-1.41-3.77-1.89-8.01-1.89-12.25s.47-8.01,1.89-11.78,3.3-7.07,5.66-9.9,5.18-5.18,8.95-6.6,7.54-2.36,11.78-2.36,8.95.94,12.25,2.83c3.77,1.89,6.6,4.24,8.95,7.54,2.36,3.3,4.24,6.6,5.18,10.84.94,4.24,1.41,8.48.94,12.72h-42.89.47ZM610.44,177.8c0-1.89-.47-3.77-1.41-5.66s-1.89-3.3-2.83-4.71c-1.41-1.41-2.83-2.36-4.71-3.3s-3.77-1.41-6.13-1.41-4.24,0-6.13,1.41c-1.89.94-3.3,1.89-4.71,3.3s-2.36,2.83-3.3,4.71-1.41,3.77-1.41,6.13h30.16l.47-.47Z"/>
      <path class="cls-1" d="M632.12,153.76h12.25v11.31h0c0-1.41.94-3.3,2.36-4.71.94-1.41,2.36-2.83,3.77-4.24,1.41-1.41,3.3-2.36,5.18-2.83s3.77-.94,5.66-.94h5.18v12.25h-5.66c-2.36,0-4.24,0-6.13,1.41-1.89.94-3.77,2.36-5.18,3.77-1.41,1.89-2.36,3.77-3.3,6.13s-1.41,5.18-1.41,8.48v27.81h-12.73v-58.44h0Z"/>
      <path class="cls-1" d="M673.13,153.76h12.25v8.48h0c1.89-2.83,4.71-5.66,7.54-7.54,3.3-1.89,6.6-2.83,10.37-2.83,6.6,0,11.31,1.89,15.08,5.18s5.66,8.48,5.66,15.08v40.06h-12.73v-36.76c0-4.71-.94-8.01-2.83-9.9-1.89-1.89-4.71-3.3-8.48-3.3s-4.24,0-5.66,1.41c-1.89.94-3.3,1.89-4.24,3.3-1.41,1.41-2.36,2.83-2.83,4.71s-.94,3.77-.94,6.13v34.4h-12.73v-58.44h-.47Z"/>
      <path class="cls-1" d="M786.24,199.48c0,1.41,0,2.83.47,3.3,0,.47,1.41.94,2.36.94h3.3v8.95s-.94,0-1.89.47c-.94,0-1.41,0-2.36.47h-4.24c-2.83,0-4.71-.47-6.6-1.41s-2.83-2.83-3.3-5.66c-2.36,2.36-5.66,4.24-9.43,5.66-3.77.94-7.54,1.89-10.84,1.89s-5.18,0-7.54-.94-4.71-1.89-6.6-3.3-3.3-3.3-4.24-5.18c-.94-2.36-1.41-4.71-1.41-7.54s.47-6.6,1.89-8.95c1.41-2.36,2.83-4.24,5.18-5.18,2.36-1.41,4.71-2.36,7.07-2.83,2.83-.47,5.18-.94,8.01-1.41,2.36,0,4.71-.94,6.6-.94s3.77-.47,5.66-.94c1.41,0,2.83-.94,3.77-1.89s1.41-2.36,1.41-4.24,0-2.83-1.41-4.24c-.94-.94-1.89-1.89-2.83-2.36-.94-.47-2.36-.94-3.77-.94h-4.24c-3.77,0-6.6.94-8.95,2.36s-3.77,3.77-3.77,7.07h-12.73c0-3.77.94-7.07,2.83-9.43,1.41-2.36,3.77-4.71,6.13-6.13s5.18-2.36,8.48-3.3,6.13-.94,9.43-.94,5.66,0,8.48.94,5.18,1.41,7.54,2.83,4.24,3.3,5.18,5.18c1.41,2.36,1.89,4.71,1.89,8.01v30.16l.47-.47ZM773.04,182.98c-1.89,1.41-4.24,1.89-7.07,2.36-2.83,0-5.66.47-8.48,1.41-1.41,0-2.83.47-3.77.94-1.41,0-2.36.94-3.3,1.89s-1.89,1.89-2.36,2.83c-.47.94-.94,2.36-.94,4.24s0,2.83,1.41,3.77c.94.94,1.89,1.89,2.83,2.36.94.47,2.36.94,3.77,1.41h3.77c.94,0,2.83,0,4.71-.47,1.89,0,3.3-.94,4.71-1.89s2.83-1.89,3.77-3.3,1.41-3.3,1.41-5.18v-9.43l-.47-.94Z"/>
      <path class="cls-1" d="M838.55,173.55c-.47-3.77-1.89-6.6-4.24-8.01s-5.18-2.83-8.95-2.83-3.3,0-5.18.94c-1.89.47-3.77,1.41-5.18,3.3-1.41,1.41-2.83,3.77-3.77,6.6-.94,2.83-1.41,6.6-1.41,10.84s0,4.71.94,7.07c.47,2.36,1.41,4.71,2.83,6.6s2.83,3.3,4.71,4.71c1.89.94,4.24,1.89,7.07,1.89s7.07-.94,9.43-3.3,3.77-5.66,4.71-9.9h12.73c-1.41,7.54-4.24,13.67-8.48,17.44-4.71,4.24-10.84,6.13-18.38,6.13s-8.48-.94-12.25-2.36-6.6-3.77-8.95-6.13c-2.36-2.83-4.24-5.66-5.66-9.43s-1.89-7.54-1.89-11.78.47-8.48,1.89-12.25c1.41-3.77,2.83-7.07,5.66-9.9,2.36-2.83,5.18-5.18,8.95-6.6,3.77-1.41,8.01-2.36,12.73-2.36s6.6,0,9.9,1.41c2.83.94,5.66,2.36,8.01,3.77,2.36,1.89,4.24,3.77,5.66,6.6,1.41,2.83,2.36,5.66,2.83,9.43h-12.73l-.94-1.89Z"/>
      <path class="cls-1" d="M861.17,131.61h12.73v12.25h-12.73v-12.25ZM861.17,153.76h12.73v58.44h-12.73v-58.44Z"/>
      <path class="cls-1" d="M913.96,214.09c-4.71,0-8.95-.94-12.73-2.36s-6.6-3.77-9.43-6.6c-2.36-2.83-4.24-6.13-5.66-9.9s-1.89-8.01-1.89-12.25.47-8.48,1.89-12.25c1.41-3.77,3.3-7.07,5.66-9.9s5.66-4.71,9.43-6.6c3.77-1.41,8.01-2.36,12.73-2.36s8.95.94,12.73,2.36,6.6,3.77,9.43,6.6c2.36,2.83,4.24,6.13,5.66,9.9,1.41,3.77,1.89,8.01,1.89,12.25s-.47,8.48-1.89,12.25c-1.41,3.77-3.3,7.07-5.66,9.9s-5.66,4.71-9.43,6.6c-3.77,1.41-8.01,2.36-12.73,2.36ZM913.96,203.72c2.83,0,5.18-.47,7.54-1.89,1.89-1.41,3.77-2.83,5.18-4.71s2.36-4.24,2.83-6.6.94-5.18.94-7.54,0-5.18-.94-7.54c-.47-2.36-1.41-4.71-2.83-6.6s-3.3-3.3-5.18-4.71c-1.89-1.41-4.71-1.89-7.54-1.89s-5.18.47-7.54,1.89c-1.89,1.41-3.77,2.83-5.18,4.71s-2.36,4.24-2.83,6.6-.94,5.18-.94,7.54,0,5.18.94,7.54c.47,2.36,1.41,4.71,2.83,6.6s3.3,3.77,5.18,4.71c1.89,1.41,4.71,1.89,7.54,1.89Z"/>
      <path class="cls-1" d="M953.55,153.76h12.25v8.48h0c1.89-2.83,4.71-5.66,7.54-7.54,3.3-1.89,6.6-2.83,10.37-2.83,6.6,0,11.31,1.89,15.08,5.18,3.77,3.3,5.66,8.48,5.66,15.08v40.06h-12.73v-36.76c0-4.71-.94-8.01-2.83-9.9-1.89-1.89-4.71-3.3-8.48-3.3s-4.24,0-5.66,1.41c-1.89.94-3.3,1.89-4.24,3.3-1.41,1.41-2.36,2.83-2.83,4.71s-.94,3.77-.94,6.13v34.4h-12.73v-58.44h-.47Z"/>
      <path class="cls-1" d="M1066.66,199.48c0,1.41,0,2.83.47,3.3,0,.47,1.41.94,2.36.94h3.3v8.95s-.94,0-1.89.47c-.94,0-1.41,0-2.36.47h-4.24c-2.83,0-4.71-.47-6.6-1.41s-2.83-2.83-3.3-5.66c-2.36,2.36-5.66,4.24-9.43,5.66-3.77.94-7.54,1.89-10.84,1.89s-5.18,0-7.54-.94-4.71-1.89-6.6-3.3-3.3-3.3-4.24-5.18c-.94-2.36-1.41-4.71-1.41-7.54s.47-6.6,1.89-8.95c1.41-2.36,2.83-4.24,5.18-5.18,2.36-1.41,4.71-2.36,7.07-2.83,2.83-.47,5.18-.94,8.01-1.41,2.36,0,4.71-.94,6.6-.94s3.77-.47,5.66-.94c1.41,0,2.83-.94,3.77-1.89s1.41-2.36,1.41-4.24,0-2.83-1.41-4.24c-.94-.94-1.89-1.89-2.83-2.36-.94-.47-2.36-.94-3.77-.94h-4.24c-3.77,0-6.6.94-8.95,2.36-2.36,1.41-3.77,3.77-3.77,7.07h-12.73c0-3.77.94-7.07,2.83-9.43,1.41-2.36,3.77-4.71,6.13-6.13s5.18-2.36,8.48-3.3,6.13-.94,9.43-.94,5.66,0,8.48.94,5.18,1.41,7.54,2.83,4.24,3.3,5.18,5.18c1.41,2.36,1.89,4.71,1.89,8.01v30.16l.47-.47ZM1053.46,182.98c-1.89,1.41-4.24,1.89-7.07,2.36-2.83,0-5.66.47-8.48,1.41-1.41,0-2.83.47-3.77.94-1.41,0-2.36.94-3.3,1.89s-1.89,1.89-2.36,2.83c-.47.94-.94,2.36-.94,4.24s0,2.83,1.41,3.77c.94.94,1.89,1.89,2.83,2.36.94.47,2.36.94,3.77,1.41h3.77c.94,0,2.83,0,4.71-.47,1.89,0,3.3-.94,4.71-1.89s2.83-1.89,3.77-3.3,1.41-3.3,1.41-5.18v-9.43l-.47-.94Z"/>
      <path class="cls-1" d="M1079.85,131.61h12.73v81.06h-12.73v-81.06Z"/>
      <path class="cls-1" d="M494.03,316.83h-12.25v-8.01h0c-1.89,3.3-4.24,5.66-7.54,7.54-3.3,1.41-7.07,2.36-10.37,2.36s-8.48-.94-12.25-2.36c-3.3-1.41-6.13-3.77-8.48-6.6-2.36-2.83-3.77-6.13-5.18-9.9-.94-3.77-1.89-8.01-1.89-12.25s.94-9.9,2.36-13.67,3.3-7.07,5.66-9.43,5.18-4.24,8.01-5.66c2.83-.94,6.13-1.89,9.43-1.89s3.77,0,5.66.47c1.89,0,3.77.94,5.66,1.41,1.89.94,3.3,1.89,4.71,2.83,1.41.94,2.83,2.36,3.77,4.24h0v-29.69h12.73v81.06-.47ZM449.26,288.08c0,2.36,0,4.71.94,7.54.47,2.36,1.41,4.71,2.83,6.6s2.83,3.3,5.18,4.71,4.24,1.89,7.07,1.89,5.18-.47,7.54-1.89c1.89-1.41,3.77-2.83,5.18-4.71s2.36-4.24,2.83-6.6.94-5.18.94-7.54c0-6.6-1.41-11.78-4.24-15.08-2.83-3.77-7.07-5.66-11.78-5.66s-5.66.47-7.54,1.89c-1.89,1.41-3.77,2.83-5.18,4.71s-2.36,4.24-2.83,6.6-.94,5.18-.94,7.54h0Z"/>
      <path class="cls-1" d="M517.13,290.91c0,2.36,0,4.24.94,6.6.47,1.89,1.41,3.77,2.83,5.66,1.41,1.41,2.83,2.83,4.71,3.77s4.24,1.41,7.07,1.41,6.6-.94,8.95-2.36,4.24-4.24,5.18-7.54h12.25c-.47,3.3-1.89,6.13-3.3,8.48-1.41,2.36-3.77,4.71-6.13,6.13-2.36,1.89-5.18,2.83-8.01,3.77-2.83.94-6.13,1.41-8.95,1.41-4.71,0-8.48-.94-12.25-2.36-3.77-1.41-6.6-3.77-8.95-6.13-2.36-2.83-4.24-6.13-5.66-9.9s-1.89-8.01-1.89-12.25.47-8.01,1.89-11.78,3.3-7.07,5.66-9.9,5.18-5.18,8.95-6.6,7.54-2.36,11.78-2.36,8.95.94,12.25,2.83c3.77,1.89,6.6,4.24,8.95,7.54,2.36,3.3,4.24,6.6,5.18,10.84s1.41,8.48.94,12.72h-42.89.47ZM547.29,282.42c0-1.89-.47-3.77-1.41-5.66s-1.89-3.3-2.83-4.71c-1.41-1.41-2.83-2.36-4.71-3.3s-3.77-1.41-6.13-1.41-4.24,0-6.13,1.41c-1.89.94-3.3,1.89-4.71,3.3s-2.36,2.83-3.3,4.71-1.41,3.77-1.41,6.13h30.16l.47-.47Z"/>
      <path class="cls-1" d="M623.17,235.77h15.08l31.11,81.06h-15.08l-7.54-21.21h-32.52l-7.54,21.21h-14.61l31.11-81.06ZM617.99,284.78h24.51l-12.25-34.88h0l-12.25,34.88h0Z"/>
      <path class="cls-1" d="M676.43,258.39h12.25v8.48h0c1.89-2.83,4.71-5.66,7.54-7.54,3.3-1.89,6.6-2.83,10.37-2.83,6.6,0,11.31,1.89,15.08,5.18s5.66,8.48,5.66,15.08v40.06h-12.73v-36.76c0-4.71-.94-8.01-2.83-9.9-1.89-1.89-4.71-3.3-8.48-3.3s-4.24,0-5.66,1.41c-1.89.94-3.3,1.89-4.24,3.3-1.41,1.41-2.36,2.83-2.83,4.71s-.94,3.77-.94,6.13v34.4h-12.73v-58.44h-.47Z"/>
      <path class="cls-1" d="M795.66,316.83h-12.25v-8.01h0c-1.89,3.3-4.24,5.66-7.54,7.54-3.3,1.41-7.07,2.36-10.37,2.36s-8.48-.94-12.25-2.36c-3.3-1.41-6.13-3.77-8.48-6.6-2.36-2.83-3.77-6.13-5.18-9.9-.94-3.77-1.89-8.01-1.89-12.25s.94-9.9,2.36-13.67,3.3-7.07,5.66-9.43,5.18-4.24,8.01-5.66c2.83-.94,6.13-1.89,9.43-1.89s3.77,0,5.66.47c1.89,0,3.77.94,5.66,1.41,1.89.94,3.3,1.89,4.71,2.83,1.41.94,2.83,2.36,3.77,4.24h0v-29.69h12.73v81.06-.47ZM750.42,288.08c0,2.36,0,4.71.94,7.54.47,2.36,1.41,4.71,2.83,6.6s2.83,3.3,5.18,4.71,4.24,1.89,7.07,1.89,5.18-.47,7.54-1.89c1.89-1.41,3.77-2.83,5.18-4.71s2.36-4.24,2.83-6.6.94-5.18.94-7.54c0-6.6-1.41-11.78-4.24-15.08-2.83-3.77-7.07-5.66-11.78-5.66s-5.66.47-7.54,1.89c-1.89,1.41-3.77,2.83-5.18,4.71s-2.36,4.24-2.83,6.6-.94,5.18-.94,7.54h0Z"/>
      <path class="cls-1" d="M857.87,303.63c0,1.41,0,2.83.47,3.3,0,.47,1.41.94,2.36.94h3.3v8.95s-.94,0-1.89.47c-.94,0-1.41,0-2.36.47h-4.24c-2.83,0-4.71-.47-6.6-1.41s-2.83-2.83-3.3-5.66c-2.36,2.36-5.66,4.24-9.43,5.66-3.77.94-7.54,1.89-10.84,1.89s-5.18,0-7.54-.94-4.71-1.89-6.6-3.3-3.3-3.3-4.24-5.18c-.94-2.36-1.41-4.71-1.41-7.54s.47-6.6,1.89-8.95c1.41-2.36,2.83-4.24,5.18-5.18,2.36-1.41,4.71-2.36,7.07-2.83,2.83-.47,5.18-.94,8.01-1.41,2.36,0,4.71-.94,6.6-.94s3.77-.47,5.66-.94c1.41,0,2.83-.94,3.77-1.89s1.41-2.36,1.41-4.24,0-2.83-1.41-4.24c-.94-.94-1.89-1.89-2.83-2.36-.94-.47-2.36-.94-3.77-.94h-4.24c-3.77,0-6.6.94-8.95,2.36s-3.77,3.77-3.77,7.07h-12.73c0-3.77.94-7.07,2.83-9.43,1.41-2.36,3.77-4.71,6.13-6.13s5.18-2.36,8.48-3.3,6.13-.94,9.43-.94,5.66,0,8.48.94,5.18,1.41,7.54,2.83,4.24,3.3,5.18,5.18c1.41,2.36,1.89,4.71,1.89,8.01v30.16l.47-.47ZM844.68,287.61c-1.89,1.41-4.24,1.89-7.07,2.36-2.83,0-5.66.47-8.48,1.41-1.41,0-2.83.47-3.77.94-1.41,0-2.36.94-3.3,1.89s-1.89,1.89-2.36,2.83c-.47.94-.94,2.36-.94,4.24s0,2.83,1.41,3.77c.94.94,1.89,1.89,2.83,2.36.94.47,2.36.94,3.77,1.41h3.77c.94,0,2.83,0,4.71-.47,1.89,0,3.3-.94,4.71-1.89s2.83-1.89,3.77-3.3,1.41-3.3,1.41-5.18v-9.43l-.47-.94Z"/>
      <path class="cls-1" d="M871.07,235.77h12.73v81.06h-12.73v-81.06Z"/>
      <path class="cls-1" d="M948.36,316.83h-12.73v-8.01h0c-1.41,2.83-3.77,5.18-7.07,7.07-3.3,1.89-6.13,2.83-9.43,2.83-7.54,0-13.2-1.89-16.5-5.66-3.3-3.77-5.18-9.43-5.18-17.44v-37.23h12.73v35.82c0,5.18.94,8.95,2.83,10.84,1.89,1.89,4.71,3.3,8.48,3.3s5.18,0,6.6-1.41,3.3-1.89,4.24-3.3,1.89-3.3,2.36-5.18c.47-1.89.94-4.24.94-6.13v-33.93h12.73v58.44h0Z"/>
      <path class="cls-1" d="M1000.68,277.71c-.47-3.77-1.89-6.6-4.24-8.01s-5.18-2.83-8.95-2.83-3.3,0-5.18.94c-1.89.47-3.77,1.41-5.18,3.3-1.41,1.41-2.83,3.77-3.77,6.6-.94,2.83-1.41,6.6-1.41,10.84s0,4.71.94,7.07c.47,2.36,1.41,4.71,2.83,6.6s2.83,3.3,4.71,4.71c1.89.94,4.24,1.89,7.07,1.89s7.07-.94,9.43-3.3c2.36-2.36,3.77-5.66,4.71-9.9h12.73c-1.41,7.54-4.24,13.67-8.48,17.44-4.71,4.24-10.84,6.13-18.38,6.13s-8.48-.94-12.25-2.36-6.6-3.77-8.95-6.13c-2.36-2.83-4.24-5.66-5.66-9.43s-1.89-7.54-1.89-11.78.47-8.48,1.89-12.25c1.41-3.77,2.83-7.07,5.66-9.9,2.36-2.83,5.18-5.18,8.95-6.6,3.77-1.41,8.01-2.36,12.73-2.36s6.6,0,9.9,1.41c2.83.94,5.66,2.36,8.01,3.77,2.36,1.89,4.24,3.77,5.66,6.6s2.36,5.66,2.83,9.43h-12.73l-.94-1.89Z"/>
      <path class="cls-1" d="M1033.67,233.88h15.08l-16.02,16.02h-9.43l10.37-16.02ZM1023.3,316.83v-58.44h12.73v58.44h-12.73Z"/>
      <path class="cls-1" d="M1098.23,303.63c0,1.41,0,2.83.47,3.3,0,.47,1.41.94,2.36.94h3.3v8.95s-.94,0-1.89.47c-.94,0-1.41,0-2.36.47h-4.24c-2.83,0-4.71-.47-6.6-1.41s-2.83-2.83-3.3-5.66c-2.36,2.36-5.66,4.24-9.43,5.66-3.77.94-7.54,1.89-10.84,1.89s-5.18,0-7.54-.94-4.71-1.89-6.6-3.3-3.3-3.3-4.24-5.18c-.94-2.36-1.41-4.71-1.41-7.54s.47-6.6,1.89-8.95c1.41-2.36,2.83-4.24,5.18-5.18,2.36-1.41,4.71-2.36,7.07-2.83,2.83-.47,5.18-.94,8.01-1.41,2.36,0,4.71-.94,6.6-.94s3.77-.47,5.66-.94c1.41,0,2.83-.94,3.77-1.89s1.41-2.36,1.41-4.24,0-2.83-1.41-4.24c-.94-.94-1.89-1.89-2.83-2.36-.94-.47-2.36-.94-3.77-.94h-4.24c-3.77,0-6.6.94-8.95,2.36s-3.77,3.77-3.77,7.07h-12.73c0-3.77.94-7.07,2.83-9.43,1.41-2.36,3.77-4.71,6.13-6.13s5.18-2.36,8.48-3.3,6.13-.94,9.43-.94,5.66,0,8.48.94,5.18,1.41,7.54,2.83,4.24,3.3,5.18,5.18c1.41,2.36,1.89,4.71,1.89,8.01v30.16l.47-.47ZM1085.51,287.61c-1.89,1.41-4.24,1.89-7.07,2.36-2.83,0-5.66.47-8.48,1.41-1.41,0-2.83.47-3.77.94-1.41,0-2.36.94-3.3,1.89s-1.89,1.89-2.36,2.83c-.47.94-.94,2.36-.94,4.24s0,2.83,1.41,3.77c.94.94,1.89,1.89,2.83,2.36.94.47,2.36.94,3.77,1.41h3.77c.94,0,2.83,0,4.71-.47,1.89,0,3.3-.94,4.71-1.89s2.83-1.89,3.77-3.3,1.41-3.3,1.41-5.18v-9.43l-.47-.94Z"/>
    </g>
  </g>
</svg>